<svg width="20" height="20" viewBox="0 0 20 20" fill="none" xmlns="http://www.w3.org/2000/svg">
<path d="M16.8608 8.95606C16.8608 14.3349 11.3516 17.6486 10.2067 18.2798C10.1433 18.3148 10.072 18.3332 9.99961 18.3332C9.92718 18.3332 9.85593 18.3148 9.79251 18.2798C8.64676 17.6486 3.13928 14.3349 3.13928 8.95606C3.13928 4.66809 5.71207 1.6665 10 1.6665C14.288 1.6665 16.8608 4.66809 16.8608 8.95606Z" stroke="#8D8BA7" stroke-width="1.4" stroke-linecap="round" stroke-linejoin="round"/>
<path d="M6.5697 8.52706C6.5697 9.43685 6.93112 10.3094 7.57444 10.9527C8.21776 11.596 9.09029 11.9574 10.0001 11.9574C10.9099 11.9574 11.7824 11.596 12.4257 10.9527C13.069 10.3094 13.4305 9.43685 13.4305 8.52706C13.4305 7.61727 13.069 6.74474 12.4257 6.10141C11.7824 5.45809 10.9099 5.09668 10.0001 5.09668C9.09029 5.09668 8.21776 5.45809 7.57444 6.10141C6.93112 6.74474 6.5697 7.61727 6.5697 8.52706V8.52706Z" stroke="#8D8BA7" stroke-width="1.4" stroke-linecap="round" stroke-linejoin="round"/>
</svg>
