<svg width="468" height="467" viewBox="0 0 468 467" fill="none" xmlns="http://www.w3.org/2000/svg">
<rect width="468" height="467" rx="233.5" fill="#F9F9FF"/>
<path d="M236.872 296.99C218.854 296.99 200.836 296.99 182.818 296.99C181.938 296.99 181.046 296.99 180.162 296.9C175.651 296.48 173.838 293.452 175.761 289.357C177.431 285.823 179.252 282.379 181.02 278.882C189.366 262.416 197.712 245.954 206.059 229.493C206.317 228.991 206.586 228.488 206.886 228.008C208.988 224.651 212.402 224.178 215.092 227.074C216.989 229.1 218.593 231.376 220.286 233.572C228.885 244.77 237.484 255.973 246.084 267.181C249.839 272.058 254.57 272.323 258.982 267.937C261.172 265.76 263.311 263.525 265.527 261.367C269.522 257.473 274.055 257.707 277.318 262.248C283.866 271.358 290.251 280.59 296.666 289.792C297.168 290.514 297.552 291.31 297.805 292.151C298.427 294.265 297.547 295.966 295.396 296.529C294.047 296.851 292.662 296.999 291.275 296.971C273.151 297.002 255.017 297.008 236.872 296.99Z" fill="black"/>
<path d="M277.28 206.769C277.275 210.283 276.224 213.717 274.258 216.635C272.293 219.553 269.502 221.824 266.24 223.16C262.978 224.495 259.391 224.836 255.935 224.138C252.478 223.44 249.307 221.735 246.825 219.239C244.342 216.743 242.658 213.568 241.988 210.118C241.318 206.668 241.691 203.097 243.06 199.858C244.429 196.619 246.732 193.858 249.677 191.925C252.623 189.992 256.078 188.974 259.605 189C264.301 189.06 268.785 190.956 272.092 194.28C275.398 197.603 277.261 202.089 277.28 206.769Z" fill="black"/>
</svg>
