<svg width="514" height="312" viewBox="0 0 514 312" fill="none" xmlns="http://www.w3.org/2000/svg">
<rect x="0.805603" y="0.865723" width="512.452" height="310.435" rx="10" fill="#F9F9FF"/>
<path d="M257.392 205.807C239.924 205.807 222.455 205.807 204.987 205.807C204.134 205.807 203.269 205.807 202.413 205.724C198.039 205.337 196.281 202.548 198.146 198.778C199.764 195.522 201.53 192.35 203.244 189.129C211.335 173.965 219.427 158.803 227.519 143.643C227.769 143.179 228.03 142.716 228.321 142.274C230.358 139.182 233.669 138.747 236.276 141.414C238.115 143.28 239.671 145.377 241.312 147.399C249.649 157.713 257.986 168.031 266.322 178.353C269.964 182.845 274.55 183.088 278.828 179.049C280.95 177.044 283.025 174.986 285.173 172.998C289.046 169.412 293.441 169.628 296.604 173.809C302.952 182.2 309.142 190.703 315.362 199.178C315.848 199.843 316.22 200.576 316.465 201.351C317.069 203.297 316.215 204.864 314.13 205.383C312.822 205.679 311.48 205.816 310.136 205.79C292.564 205.818 274.983 205.824 257.392 205.807Z" fill="#D4D2E3"/>
<path d="M296.567 122.713C296.563 125.95 295.543 129.113 293.638 131.8C291.732 134.488 289.027 136.579 285.864 137.809C282.701 139.039 279.224 139.353 275.873 138.71C272.522 138.067 269.448 136.497 267.041 134.198C264.634 131.899 263.002 128.976 262.352 125.798C261.702 122.62 262.064 119.331 263.391 116.348C264.718 113.365 266.951 110.822 269.807 109.042C272.662 107.262 276.012 106.324 279.431 106.349C283.984 106.403 288.332 108.15 291.537 111.211C294.743 114.272 296.549 118.403 296.567 122.713Z" fill="#D4D2E3"/>
</svg>
